<svg id="apple" xmlns="http://www.w3.org/2000/svg" width="200" height="200" viewBox="0 0 200 200">
  <defs>
    <style>
      .cls-1 {
        fill: #f0563c;
      }

      .cls-1, .cls-2, .cls-3 {
        stroke: #000;
      }

      .cls-1, .cls-3, .cls-4 {
        stroke-width: 7px;
      }

      .cls-1, .cls-2, .cls-3, .cls-4 {
        fill-rule: evenodd;
      }

      .cls-2 {
        fill: #845e28;
        stroke-width: 5px;
      }

      .cls-3 {
        fill: none;
      }

      .cls-4 {
        fill: #ddf0ef;
        stroke: #d8eaee;
      }
    </style>
  </defs>
  <path id="Muoto_4" data-name="Muoto 4" class="cls-1" d="M3,104C2.681,83.772,11.28,64.758,27,49S56.493,31.334,72,30s19.548,6.659,29,7,11.11-6.289,21-8c36-6.227,58.339,9.538,67,28s10.755,63.772,3,83c-11.611,28.79-26,45.709-45,53s-35.5-4.479-46-1c-18.061,5.983-37.264,5.625-60-6-19.024-9.728-30.609-29.729-34-40C2.778,133.212,3.426,131.041,3,104Z"/>
  <path id="Muoto_5" data-name="Muoto 5" class="cls-2" d="M97,49V10l17-6L103,48Z"/>
  <path id="Muoto_6" data-name="Muoto 6" class="cls-3" d="M81,45c0.205,0.362,9.178,5.663,16,6s18.345-1.47,23-6"/>
  <path id="Muoto_7" data-name="Muoto 7" class="cls-4" d="M40,69A31.682,31.682,0,0,1,62,59l5,15s-11.152-4.883-19,5a28.877,28.877,0,0,0-6,21L31,97S30.28,79.308,40,69Z"/>
</svg>
