<?xml version="1.0" standalone="no"?>
<!DOCTYPE svg PUBLIC "-//W3C//DTD SVG 20010904//EN"
 "http://www.w3.org/TR/2001/REC-SVG-20010904/DTD/svg10.dtd">
<svg version="1.0" xmlns="http://www.w3.org/2000/svg"
 width="240.000000pt" height="240.000000pt" viewBox="0 0 240.000000 240.000000"
 preserveAspectRatio="xMidYMid meet">
<metadata>
Created by potrace 1.15, written by Peter Selinger 2001-2017
</metadata>
<g transform="translate(0.000000,240.000000) scale(0.100000,-0.100000)"
fill="#000000" stroke="none">
<path d="M785 1553 c-36 -9 -83 -52 -104 -96 -40 -83 -19 -216 40 -248 36 -19
97 -4 136 33 50 47 63 79 63 148 0 72 -17 119 -55 148 -27 22 -41 24 -80 15z
m53 -138 c7 -57 -51 -123 -87 -100 -19 11 -12 80 10 109 30 38 73 33 77 -9z"/>
<path d="M1618 1533 c-48 -50 -60 -123 -37 -207 33 -121 163 -127 203 -10 23
67 20 109 -11 166 -43 79 -108 100 -155 51z m71 -72 c10 -6 16 -33 19 -75 4
-61 3 -66 -16 -66 -12 0 -28 10 -36 22 -19 27 -21 99 -4 116 14 14 18 15 37 3z"/>
</g>
</svg>
