<?xml version="1.0" standalone="no"?>
<!DOCTYPE svg PUBLIC "-//W3C//DTD SVG 20010904//EN"
 "http://www.w3.org/TR/2001/REC-SVG-20010904/DTD/svg10.dtd">
<svg version="1.0" xmlns="http://www.w3.org/2000/svg"
 width="240.000000pt" height="240.000000pt" viewBox="0 0 240.000000 240.000000"
 preserveAspectRatio="xMidYMid meet">
<metadata>
Created by potrace 1.15, written by Peter Selinger 2001-2017
</metadata>
<g transform="translate(0.000000,240.000000) scale(0.100000,-0.100000)"
fill="#000000" stroke="none">
<path d="M1915 1467 c-54 -30 -246 -36 -349 -13 -72 17 -80 16 -96 -15 -10
-17 -4 -22 47 -46 52 -25 69 -27 173 -28 108 0 119 2 180 31 44 21 71 41 83
63 21 36 16 37 -38 8z"/>
<path d="M540 1445 l-22 -23 28 -15 c86 -42 297 -47 403 -10 57 20 66 29 53
51 -7 10 -15 10 -38 1 -43 -18 -275 -16 -346 3 -56 16 -57 15 -78 -7z"/>
</g>
</svg>
