<?xml version="1.0" standalone="no"?>
<!DOCTYPE svg PUBLIC "-//W3C//DTD SVG 20010904//EN"
 "http://www.w3.org/TR/2001/REC-SVG-20010904/DTD/svg10.dtd">
<svg version="1.0" xmlns="http://www.w3.org/2000/svg"
 width="240.000000pt" height="240.000000pt" viewBox="0 0 240.000000 240.000000"
 preserveAspectRatio="xMidYMid meet">
<metadata>
Created by potrace 1.15, written by Peter Selinger 2001-2017
</metadata>
<g transform="translate(0.000000,240.000000) scale(0.100000,-0.100000)"
fill="#000000" stroke="none">
<path d="M1785 1681 c-3 -5 5 -13 17 -16 63 -19 106 -99 127 -232 10 -68 9
-77 -15 -148 -14 -42 -23 -79 -20 -83 16 -15 41 19 64 84 23 65 24 73 12 144
-17 104 -45 174 -89 221 -37 38 -82 52 -96 30z"/>
<path d="M601 1605 c-30 -28 -59 -68 -76 -106 -24 -55 -27 -70 -23 -154 2 -73
7 -98 20 -112 24 -24 45 -5 28 26 -6 12 -11 58 -11 101 0 105 25 164 97 229
30 27 54 52 54 55 0 3 -9 6 -20 6 -12 0 -43 -20 -69 -45z"/>
<path d="M1614 1529 c-15 -16 -20 -40 -22 -103 -3 -72 -1 -84 19 -110 19 -24
27 -27 57 -23 132 22 170 210 46 233 -19 3 -37 10 -40 15 -9 16 -40 10 -60
-12z m88 -49 c40 -12 49 -29 36 -75 -15 -59 -89 -89 -102 -42 -8 30 -8 112 1
120 9 9 22 9 65 -3z"/>
<path d="M768 1515 c-85 -58 -105 -201 -31 -234 36 -17 56 -14 99 15 53 35 72
62 80 110 9 62 -15 110 -63 123 -49 14 -43 15 -85 -14z m100 -83 c3 -39 -1
-47 -34 -78 -26 -25 -44 -34 -63 -32 -23 3 -26 8 -29 46 -2 33 3 53 20 78 21
31 27 34 63 32 40 -3 40 -4 43 -46z"/>
<path d="M1034 1473 c-3 -10 -17 -44 -30 -76 -27 -65 -30 -90 -11 -85 17 5 77
129 74 152 -3 26 -26 32 -33 9z"/>
<path d="M1450 1443 c0 -48 33 -116 65 -133 37 -20 41 -5 12 38 -15 21 -34 59
-43 85 -19 56 -34 61 -34 10z"/>
</g>
</svg>
