<?xml version="1.0" standalone="no"?>
<!DOCTYPE svg PUBLIC "-//W3C//DTD SVG 20010904//EN"
 "http://www.w3.org/TR/2001/REC-SVG-20010904/DTD/svg10.dtd">
<svg version="1.0" xmlns="http://www.w3.org/2000/svg"
 width="240.000000pt" height="240.000000pt" viewBox="0 0 240.000000 240.000000"
 preserveAspectRatio="xMidYMid meet">
<metadata>
Created by potrace 1.15, written by Peter Selinger 2001-2017
</metadata>
<g transform="translate(0.000000,240.000000) scale(0.100000,-0.100000)"
fill="#000000" stroke="none">
<path d="M1810 1681 c-165 -120 -280 -200 -338 -235 -71 -43 -83 -60 -58 -84
15 -15 20 -15 61 0 l46 16 25 -55 c38 -80 86 -97 177 -61 18 7 37 28 53 59 29
58 30 72 4 113 l-19 32 81 33 c44 19 89 42 99 52 18 18 18 20 -1 70 -27 68
-49 109 -58 108 -4 0 -36 -22 -72 -48z m-116 -276 c25 -38 16 -65 -23 -65 -13
0 -43 61 -37 76 9 22 42 17 60 -11z"/>
<path d="M556 1654 c-33 -33 -78 -106 -70 -114 10 -10 189 -80 203 -80 21 0
21 -21 2 -46 -27 -34 -27 -87 -1 -130 51 -82 201 -36 234 72 6 19 12 21 51 16
24 -2 51 -2 59 1 22 9 9 34 -21 42 -26 6 -110 53 -153 84 -14 10 -56 39 -95
63 -38 25 -92 59 -119 77 -56 35 -68 37 -90 15z m280 -242 c16 -9 -15 -76 -36
-79 -35 -6 -42 12 -20 50 22 37 35 43 56 29z"/>
</g>
</svg>
