<svg xmlns="http://www.w3.org/2000/svg" width="200" height="200" viewBox="0 0 200 200">
  <defs>
    <style>
      .cls-1 {
        fill: #f2b359;
      }

      .cls-1, .cls-2, .cls-3, .cls-4, .cls-5 {
        stroke: #000;
        stroke-width: 5px;
        fill-rule: evenodd;
      }

      .cls-2 {
        fill: #f0d876;
      }

      .cls-3 {
        fill: none;
      }

      .cls-4 {
        fill: #5acd9d;
      }

      .cls-5 {
        fill: #f6ea60;
      }
    </style>
  </defs>
  <path id="Muoto_13" data-name="Muoto 13" class="cls-1" d="M72,108c-0.927,1.224-.417,1.909,1.132,2.215,8.6,1.7,49.234-8.249,53.868-2.215,5.468,7.12,10.586,29.032,8,36s-26.226,29.245-36,27-26.936-13.037-31-23S78.073,99.98,72,108Z"/>
  <path id="Muoto_8" data-name="Muoto 8" class="cls-2" d="M67,102C55.922,96.158,51.733,80.883,51,63s2.45-39.9,16-48S89.2,2.133,104,3s31.8,7.249,39,21,9.338,45.051,4,56-7.839,15.837-20,24c-6.776,4.548-4.324,13.021-27,12C88.79,115.5,78.051,107.828,67,102Z"/>
  <path id="Muoto_14" data-name="Muoto 14" class="cls-3" d="M81.113,83.08C81.88,90.444,86.336,97.386,100,97c16.99-.48,19.716-9.479,23-14"/>
  <path id="Soikio_1" data-name="Soikio 1" class="cls-4" d="M81.5,46A10.013,10.013,0,1,1,72,56,9.76,9.76,0,0,1,81.5,46Z"/>
  <path id="Soikio_1_kopio" data-name="Soikio 1 kopio" class="cls-4" d="M119.5,46A10.013,10.013,0,1,1,110,56,9.759,9.759,0,0,1,119.5,46Z"/>
  <path id="Muoto_9" data-name="Muoto 9" class="cls-5" d="M8,113c1.317-13.348,9.62-23.259,19-23s18.882,7.383,27,16c8.769,9.308,11.233,2.561,16,7s8.106,7.79,6,17-2.059,12.319-9,13c-14.885,1.461-26.935-.912-40-7C16.849,131.27,6.683,126.348,8,113Z"/>
  <path id="Muoto_10" data-name="Muoto 10" class="cls-5" d="M128,113c4.577,0.756,10.938.518,14-4s4.658-7.8,13-13,28.948-3.112,33,9-4.6,22-14,28-17.563,10.72-29,8c-8.445-2.009-10.522-2.562-13-5s-6.393-9.076-7-13S123.423,112.244,128,113Z"/>
  <path id="Muoto_11" data-name="Muoto 11" class="cls-5" d="M37,187c-4.324-6.563-1.007-11.691,5-18,8.081-8.487,20.8-18.93,26-19s20.757,9.625,19,17-6.927,21.644-14,28-13.415,4.171-21,4C45.416,198.851,41.182,193.348,37,187Z"/>
  <path id="Muoto_12" data-name="Muoto 12" class="cls-5" d="M113,167c1.994-6.64,5.791-6.482,11-12,4.725-5.006,7.1-7.529,10-5,4.881,4.254,27.906,20.218,25,34s-15.957,16.79-24,15S109.706,177.972,113,167Z"/>
</svg>
