<?xml version="1.0" standalone="no"?>
<!DOCTYPE svg PUBLIC "-//W3C//DTD SVG 20010904//EN"
 "http://www.w3.org/TR/2001/REC-SVG-20010904/DTD/svg10.dtd">
<svg version="1.0" xmlns="http://www.w3.org/2000/svg"
 width="240.000000pt" height="240.000000pt" viewBox="0 0 240.000000 240.000000"
 preserveAspectRatio="xMidYMid meet">
<metadata>
Created by potrace 1.15, written by Peter Selinger 2001-2017
</metadata>
<g transform="translate(0.000000,240.000000) scale(0.100000,-0.100000)"
fill="#000000" stroke="none">
<path d="M1528 950 c-15 -37 -32 -58 -66 -80 -25 -16 -56 -30 -68 -30 -12 0
-59 14 -104 30 -91 34 -164 39 -213 15 -41 -19 -102 -107 -92 -132 6 -16 9
-15 28 11 55 74 72 88 117 93 32 3 63 -2 105 -17 130 -48 155 -53 195 -41 80
24 167 133 147 185 -11 29 -28 17 -49 -34z"/>
</g>
</svg>
